<!-- icon666.com - MILLIONS vector ICONS FREE --><svg version="1.1" id="Capa_1" xmlns="http://www.w3.org/2000/svg" xmlns:xlink="http://www.w3.org/1999/xlink" x="0px" y="0px" viewBox="0 0 512 512" style="enable-background:new 0 0 512 512;" xml:space="preserve"><g><g><g><path d="M256,0.004c-141.161,0-256,114.839-256,256s114.839,255.991,256,255.991s256-114.821,256-255.991 S397.161,0.004,256,0.004z M256,479.239c-123.092,0-223.235-100.151-223.235-223.243S132.908,32.761,256,32.761 c123.101,0,223.235,100.151,223.235,223.243S379.101,479.239,256,479.239z" fill="#000000" style="fill: rgb(33, 12, 16);"></path><circle cx="256.009" cy="380.313" r="22.187" fill="#000000" style="fill: rgb(33, 12, 16);"></circle><path d="M264.466,116.822c-44.072-0.905-94.711,19.027-101.491,64.794c-1.322,8.955,4.863,17.288,13.809,18.61 c8.937,1.349,17.288-4.854,18.61-13.809c3.701-25.009,37.141-37.789,68.415-36.83c30.875,0.612,63.365,13.756,66.374,41.747 c2.103,19.365-10.57,28.443-37.957,43.229c-11.422,6.168-23.243,12.549-32.153,21.14c-21.645,20.838-21.566,41.667-21.503,58.413 v2.796c0,9.052,7.331,16.383,16.383,16.383c9.052,0,16.383-7.331,16.401-16.383l-0.009-2.929 c-0.062-14.688-0.089-23.553,11.475-34.682c5.689-5.485,15.06-10.543,24.982-15.904c25.186-13.605,59.656-32.215,54.979-75.577 C357.633,140.021,309.692,117.727,264.466,116.822z" fill="#000000" style="fill: rgb(33, 12, 16);"></path></g></g></g></svg>