<svg width="1008" height="693" viewBox="0 0 1008 693" fill="none" xmlns="http://www.w3.org/2000/svg">
<path d="M815.43 477.381L756.964 420.961L699.17 477.381" stroke="black"/>
<path d="M798.332 485.903L759.92 447.176L740.943 466.708L721.966 486.24L723.598 506.445" stroke="black"/>
<path d="M784.359 574.833L816 527.202M764.709 562.422L797.016 516.133" stroke="black"/>
<path d="M491.298 545.918L470.376 573.116L534.038 617.949L554.362 591.946L491.298 545.918Z" stroke="black" stroke-width="7"/>
<path d="M669.691 400.039L645.264 425.234L701.082 480.268L724.75 456.225L669.691 400.039Z" stroke="black" stroke-width="7"/>
<path d="M419.92 502.454L389.715 474.341L403.215 455.152" stroke="black" stroke-width="7"/>
<path d="M397.318 453.608L402.252 455.179L386.216 475.372L353.157 466.173L222.896 498.931L206.12 500.95L132.355 513.066L34.4123 528.099L32.6854 524.061L33.4255 522.266V515.759L30.7117 504.989L27.2578 466.397L188.851 443.287L215.495 437.005L317.907 405.286L331.941 397.291V366.817L338.993 362.828L397.318 453.608Z" stroke="black"/>
<path d="M53.2969 427.17L49.4529 431.57L55.1395 432.568L53.2969 427.17ZM50.8948 441.426L52.8888 431.665L51.9038 431.493L49.9099 441.253L50.8948 441.426Z" fill="black"/>
<path d="M546.153 241.728L566.669 221.496L574.363 216.652L691.019 349.078H697.295L702.59 346.518L697.295 353.803L695.922 358.726C695.922 358.726 697.607 363.935 698.079 367.389C698.673 371.731 700.235 374.796 698.079 378.612C696.824 380.833 693.372 383.14 693.372 383.14C690.019 385.497 683.566 386.881 683.566 386.881L609.127 391.897L488.593 408.139L461.522 362.832L537.889 244.862L546.153 241.728Z" stroke="black"/>
<path d="M35.2305 464.84L163.986 446.837L189.786 443.011L216.316 436.035L265.761 421.243L295.681 412.41L317.052 405.856L325.886 400.727M283.25 389L214.126 424.782M199.765 428.158L185.892 431.759L78.3113 444.136H69.3057" stroke="black"/>
<path d="M981.841 454.586L603.997 87.5703" stroke="black"/>
<path d="M723.101 505.645L741.663 549.268L765.53 562.588M672.386 401.417L680.341 386.766M784.755 574.576L802.323 586.231" stroke="black"/>
<path d="M686.768 658L625.795 624.824L615.932 619.444H535.234M469.18 574.013L399.54 589.555L360.088 512.145L274.009 535.159L263.249 538.446L246.811 541.435L145.19 559.966L42.0752 578.497" stroke="black"/>
<path d="M920.861 522.403L505.119 58.5039" stroke="black"/>
<path d="M57.1914 444.897L55.1289 441.956L59.7695 439.694L56.4179 434.716L61.3164 432.454L57.9648 427.703L62.6054 425.44L59.2539 420.463L63.6367 418.201L60.2851 413.45L65.4414 411.187L64.4101 406.888L57.9648 407.567L56.9336 403.269L50.2305 403.721L49.7148 399.875H43.7852" stroke="black"/>
<path d="M417.977 467.778L425.042 467.406" stroke="black"/>
<path d="M411.654 470.75V479.303" stroke="black"/>
<path d="M456.281 499.387L461.116 499.759L456.281 505.337" stroke="black"/>
<path d="M443.265 512.031V516.494L447.727 512.031" stroke="black"/>
<path d="M446.24 506.451L451.447 501.988L453.678 502.732L455.165 504.963L448.843 510.542L446.24 508.682V506.451Z" stroke="black"/>
<path d="M451.445 494.18L451.074 500.13L443.264 506.824L436.198 504.964" stroke="black"/>
<path d="M438.803 487.858L432.109 493.064L423.184 482.28L428.018 477.445L438.803 487.858Z" stroke="black"/>
<path d="M420.58 484.51L429.877 475.957" stroke="black"/>
<path d="M438.801 503.478L414.629 478.934V473.727L419.463 469.637H423.926L448.47 494.553V499.016L443.636 503.478H438.801Z" stroke="black"/>
<path d="M408.68 475.957V469.263M408.68 469.263L415.745 462.941L417.977 467.776L413.886 471.867L408.68 469.263Z" stroke="black"/>
<path d="M443.264 512.03H449.215L456.28 505.336V499.014L419.092 461.082H413.142L406.448 467.032L405.704 472.982L443.264 512.03Z" stroke="black"/>
<path d="M419.092 483.022L428.761 474.469" stroke="black"/>
<path d="M281.965 356.43L234.09 384.495L221.941 363.771L269.816 335.705" stroke="black"/>
<path d="M157.184 237.851L156.432 323.825L126.906 323.524L127.982 291.028" stroke="black"/>
<path d="M127.874 265.1L128.283 237.188L157.185 237.855" stroke="black"/>
<path d="M295.608 388.152L287.322 361.144L285.45 362.241L282.023 356.397M37.7036 250.037L35.7456 283.889L55.2218 284.211L55.0715 311.133L63.5075 311.219L62.3673 337.883L163.342 339.905L164.504 323.291L266.791 330.413L269.874 335.673" stroke="black"/>
<path d="M301.847 384.493L294.185 357.119L296.681 355.656L290.828 345.67L288.331 347.134L281.746 335.9L284.242 334.437L243.632 265.162L241.136 266.626L242.599 269.122L236.358 272.781L232.14 272.738" stroke="black"/>
<path d="M338.671 362.903L324.768 339.188L364.086 316.139L366.281 319.883L373.77 315.493L371.575 311.748L377.816 308.09L377.601 304.862L378.483 303.506L379.99 301.784L394.344 293.37L390.685 287.129L376.331 295.543L373.038 289.927L371.166 291.024L370.068 289.152L367.572 290.615L366.474 288.743L368.971 287.28L359.523 276.885L354.982 272L351.324 265.759L348.827 267.223L322.486 222.288L326.23 220.093L322.937 214.476L320.742 210.732L317.815 205.739L315.147 199.756L313.576 195.646L310.541 189.039L313.662 187.21L310.369 181.593L345.942 160.739L349.601 166.98L351.473 165.882L371.789 193.385L374.285 191.922L400.627 236.857L397.506 238.686L401.531 245.551L407.923 263.606L409.795 262.509L411.258 265.005L409.386 266.103L410.484 267.975L408.611 269.073L411.904 274.69L398.509 282.542L402.168 288.783L415.563 280.93L418.167 281.081L419.888 282.587L421.244 283.47L435.598 275.055L435.491 273.441L435.641 270.837L436.158 268.857L449.888 260.808L445.863 253.943L432.133 261.992L429.206 256.999L427.334 258.097L426.237 256.225L424.364 257.322L423.267 255.45L425.139 254.352L411.516 239.697L407.767 232.671L405.62 233.93L379.278 188.995L381.774 187.532L370.583 165.581L367.075 156.736L369.572 155.273L365.913 149.032L401.486 128.178L405.145 134.419L408.265 132.589L427.333 160.824L430.453 158.995L435.575 167.732L440.568 164.805L435.446 156.068L438.566 154.239L416.249 116.169L456.815 92.3883L478.508 130.824L480.381 129.726L483.932 134.353L485.18 133.621L486.419 135.736L493.284 131.711" stroke="black"/>
<path d="M492.517 131.835L476.419 104.375L480.788 101.814L478.958 98.6933L473.966 101.62L465.551 87.2661L470.544 84.3392L467.617 79.3465L457.007 85.5661L454.08 80.5733L446.591 84.9636L449.152 89.3323L414.827 109.454L412.266 105.086L404.777 109.476L407.338 113.845L399.225 118.601L398.45 121.571L396.944 123.292L394.015 125.009L391.327 126.585L371.356 138.293L363.243 143.049L361.005 143.522L360.015 143.264L358.249 142.622L358.035 142.748L343.681 151.162L343.164 153.142L342.282 154.498L341.4 155.854L340.152 156.585L338.279 157.683L320.805 167.927L313.316 172.317L307.075 175.976L304.837 176.449L303.223 176.557L301.867 175.675L300.877 175.417L293.388 179.807L291.193 176.062L283.704 180.453L285.899 184.197L251.87 204.145L249.675 200.401L242.514 204.599L244.709 208.344L237.22 212.734L240.878 218.975L243.375 217.511L249.96 228.745L248.088 229.843L267.844 263.544L273.461 260.251L272.363 258.379L275.484 256.549L272.557 251.557L275.053 250.093L252.736 212.024L293.302 188.243L315.985 226.937L318.481 225.473L344.823 270.408L341.703 272.237L361.093 305.314L320.527 329.095L300.771 295.394L298.275 296.857L280.347 266.277L277.851 267.74L276.754 265.868L271.137 269.16L303.332 324.08L305.205 322.983L311.79 334.217L309.294 335.68L315.147 345.665L317.644 344.202L331.18 367.293" stroke="black"/>
<path d="M539.005 245.467L525.102 221.751L492.025 241.142L494.22 244.886L486.731 249.277L484.17 244.908L477.305 248.933L473.345 247.9L470.483 248.739L457.377 256.422L453.719 250.181L468.073 241.766L464.78 236.15L466.652 235.052L465.555 233.18L467.427 232.082L465.964 229.586L464.091 230.683L458.324 212.262L454.299 205.397L456.795 203.933L452.039 195.82L456.408 193.259L461.164 201.372L474.894 193.323L477.089 197.068L466.48 203.288L483.816 232.86L524.382 209.08L506.68 178.883L484.212 192.054L482.017 188.309L506.981 173.675L490.883 146.215L492.131 145.483L490.668 142.987L493.788 141.157" stroke="black"/>
<path d="M565.924 221.298L563.471 218.544L546.621 228.422L542.23 220.933L557.208 212.152L551.312 206.385L532.589 217.36L546.492 241.076" stroke="black"/>
<path d="M519.569 143.653L538.959 176.729L533.967 179.656L536.162 183.401L541.155 180.474L549.569 194.828L533.967 203.975L525.186 188.996L530.179 186.07L528.35 182.949L523.357 185.876L503.967 152.799" stroke="black"/>
<path d="M572.166 217.637L557.553 202.724L563.17 199.431L545.609 169.475L526.584 137.022L512.681 113.307L498.779 89.5912L489.267 73.3648L500.5 66.7794" stroke="black"/>
<path d="M497.575 61.7873L473.235 76.0557L476.162 81.0485L481.155 78.1216L489.569 92.4757L483.953 95.7684L486.148 99.513L491.764 96.2203L508.96 125.553" stroke="black"/>
<path d="M438.674 180.172L431.357 167.69" stroke="black" stroke-width="0.5"/>
<path d="M439.921 179.441L432.604 166.96" stroke="black" stroke-width="0.5"/>
<path d="M232.615 274.974L236.833 275.017L241.955 283.754L227.601 292.169L211.568 294.859L211.396 287.413" stroke="black"/>
<path d="M208.577 284.032L205.457 285.862L168.119 285.109L169.001 259.435L181.289 258.94L181.332 254.722L177.738 254.313L178.276 238.065L209.416 238.258L209.115 243.466L214.323 243.767L214.495 251.213L209.287 250.912L208.62 255.496L191.124 255.69L190.715 259.284L208.577 259.714L208.426 262.318L211.654 262.103L211.805 259.499L223.039 252.913L228.527 262.275L235.392 258.25L237.221 261.371L239.717 259.907L229.107 241.809L227.235 242.906L220.284 231.049L222.78 229.585L219.122 223.344L209.136 229.198L75.7732 227.715" stroke="black"/>
<path d="M125.892 264.581L125.72 257.134L115.67 257.156L115.626 237.056L73.4461 236.626L73.4894 256.726L66.0433 256.899L65.5915 264.71L59.7594 264.775L60.6844 234.883" stroke="black"/>
<path d="M51.4324 241.982L50.9809 274.113L60.041 273.833L59.9334 272.219L65.7655 272.154L65.4 295.848L72.8461 295.676L72.4805 319.37L114.661 319.8L115.392 296.73L125.442 296.708L125.744 291.5" stroke="black"/>
<path d="M445.796 175.16L450.552 183.273L445.559 186.2L440.803 178.087L445.796 175.16Z" stroke="black"/>
<path d="M437.792 181.53L430.474 169.048L434.843 166.487L442.16 178.969L437.792 181.53Z" stroke="black"/>
<path d="M452.287 46.4084L452.325 52.1818L457.306 49.2619L452.287 46.4084ZM478.33 89.8448L454.994 50.0376L454.131 50.5434L477.467 90.3505L478.33 89.8448Z" fill="black"/>
<path d="M241.03 240.691L240.992 234.918L236.011 237.837L241.03 240.691ZM201.086 173.542L238.323 237.062L239.186 236.556L201.949 173.036L201.086 173.542Z" fill="black"/>
<path d="M411.775 311.666L411.737 305.892L406.756 308.812L411.775 311.666ZM380.612 259.495L409.068 308.037L409.931 307.531L381.474 258.989L380.612 259.495Z" fill="black"/>
<path d="M466.694 279.471L466.656 273.697L461.675 276.617L466.694 279.471ZM435.531 227.3L463.987 275.841L464.85 275.336L436.393 226.794L435.531 227.3Z" fill="black"/>
<path d="M133 281.472C132.984 280.92 132.524 280.485 131.972 280.5L122.976 280.75C122.424 280.766 121.989 281.226 122.004 281.778C122.019 282.33 122.479 282.765 123.031 282.75L131.028 282.527L131.25 290.524C131.266 291.076 131.726 291.511 132.278 291.496C132.83 291.481 133.265 291.021 133.25 290.469L133 281.472ZM91 277C90.3005 277.715 90.3009 277.715 90.3013 277.715C90.3016 277.716 90.3022 277.716 90.3027 277.717C90.3038 277.718 90.3052 277.719 90.307 277.721C90.3106 277.724 90.3156 277.729 90.322 277.736C90.3349 277.748 90.3534 277.766 90.3775 277.789C90.4256 277.835 90.4959 277.901 90.5874 277.986C90.7705 278.156 91.0388 278.401 91.3851 278.704C92.0774 279.311 93.0827 280.153 94.3433 281.103C96.8602 283.001 100.416 285.347 104.545 287.107C108.672 288.867 113.422 290.063 118.306 289.597C123.216 289.128 128.189 286.984 132.726 282.187L131.274 280.813C127.061 285.266 122.534 287.184 118.116 287.606C113.671 288.03 109.266 286.946 105.33 285.268C101.397 283.591 97.9836 281.343 95.5473 279.506C94.3314 278.589 93.364 277.779 92.7028 277.2C92.3723 276.91 92.1187 276.679 91.949 276.521C91.8641 276.442 91.8003 276.382 91.7584 276.342C91.7375 276.322 91.722 276.307 91.7122 276.298C91.7072 276.293 91.7037 276.289 91.7016 276.287C91.7005 276.286 91.6998 276.286 91.6995 276.285C91.6993 276.285 91.6993 276.285 91.6992 276.285C91.6993 276.285 91.6995 276.285 91 277Z" fill="#212526"/>
<path d="M842.286 502.455C842.286 516.022 831.16 527.03 817.425 527.03C803.69 527.03 792.564 516.022 792.564 502.455C792.564 488.887 803.69 477.879 817.425 477.879C831.16 477.879 842.286 488.887 842.286 502.455Z" stroke="black"/>
<circle cx="81" cy="271" r="12" fill="#212526"/>
<path d="M79.7744 267.182H82.2295V275.801H80.6006V268.723H78.8252L79.7744 267.182Z" fill="white"/>
<circle cx="143" cy="276" r="12" fill="#212526"/>
<path d="M141.892 274.959H140.292C140.335 274.029 140.626 273.299 141.165 272.768C141.708 272.232 142.403 271.965 143.251 271.965C143.774 271.965 144.235 272.076 144.634 272.299C145.036 272.518 145.356 272.836 145.595 273.254C145.837 273.668 145.958 274.09 145.958 274.52C145.958 275.031 145.812 275.582 145.519 276.172C145.229 276.762 144.698 277.459 143.925 278.264L142.958 279.283H146.028V280.801H140.058V280.016L142.724 277.297C143.368 276.645 143.796 276.121 144.007 275.727C144.222 275.328 144.329 274.969 144.329 274.648C144.329 274.316 144.218 274.043 143.995 273.828C143.776 273.609 143.493 273.5 143.146 273.5C142.794 273.5 142.501 273.631 142.267 273.893C142.032 274.154 141.907 274.51 141.892 274.959Z" fill="white"/>
</svg>
