<svg width="1008" height="693" viewBox="0 0 1008 693" fill="none" xmlns="http://www.w3.org/2000/svg">
<path d="M815.43 477.381L756.964 420.961L699.17 477.381" stroke="black"/>
<path d="M798.333 485.903L759.921 447.176L740.944 466.708L721.967 486.24L723.599 506.445" stroke="black"/>
<path d="M784.359 574.833L816 527.202M764.709 562.422L797.016 516.133" stroke="black"/>
<path d="M491.297 545.918L470.375 573.116L534.037 617.949L554.361 591.946L491.297 545.918Z" stroke="black" stroke-width="7"/>
<path d="M669.692 400.039L645.265 425.234L701.083 480.268L724.751 456.225L669.692 400.039Z" stroke="black" stroke-width="7"/>
<path d="M419.92 502.454L389.715 474.341L403.215 455.152" stroke="black" stroke-width="7"/>
<path d="M397.318 453.608L402.252 455.179L386.216 475.372L353.157 466.173L222.896 498.931L206.12 500.95L132.355 513.066L34.4123 528.099L32.6854 524.061L33.4255 522.266V515.759L30.7117 504.989L27.2578 466.397L188.851 443.287L215.495 437.005L317.907 405.286L331.941 397.291V366.817L338.993 362.828L397.318 453.608Z" stroke="black"/>
<path d="M53.2969 427.17L49.4529 431.57L55.1395 432.568L53.2969 427.17ZM50.8948 441.426L52.8888 431.665L51.9038 431.493L49.9099 441.253L50.8948 441.426Z" fill="black"/>
<path d="M546.152 241.728L566.668 221.496L574.362 216.652L691.018 349.078H697.294L702.589 346.518L697.294 353.803L695.921 358.726C695.921 358.726 697.606 363.935 698.078 367.389C698.673 371.731 700.234 374.796 698.078 378.612C696.823 380.833 693.371 383.14 693.371 383.14C690.018 385.497 683.565 386.881 683.565 386.881L609.126 391.897L488.592 408.139L461.521 362.832L537.888 244.862L546.152 241.728Z" stroke="black"/>
<path d="M35.2305 464.84L163.986 446.837L189.786 443.011L216.316 436.035L265.761 421.243L295.681 412.41L317.052 405.856L325.886 400.727M283.25 389L214.126 424.782M199.765 428.158L185.892 431.759L78.3113 444.136H69.3057" stroke="black"/>
<path d="M981.842 454.586L603.998 87.5703" stroke="black"/>
<path d="M723.1 505.645L741.663 549.268L765.529 562.588M672.385 401.417L680.34 386.766M784.754 574.576L802.322 586.231" stroke="black"/>
<path d="M686.769 658L625.796 624.824L615.933 619.444H535.235M469.181 574.013L399.541 589.555L360.089 512.145L274.01 535.159L263.25 538.446L246.812 541.435L145.191 559.966L42.0762 578.497" stroke="black"/>
<path d="M920.861 522.403L505.119 58.5039" stroke="black"/>
<path d="M57.1914 444.897L55.1289 441.956L59.7695 439.694L56.4179 434.716L61.3164 432.454L57.9648 427.703L62.6054 425.44L59.2539 420.463L63.6367 418.201L60.2851 413.45L65.4414 411.187L64.4101 406.888L57.9648 407.567L56.9336 403.269L50.2305 403.721L49.7148 399.875H43.7852" stroke="black"/>
<path d="M417.975 467.778L425.04 467.406" stroke="black"/>
<path d="M411.652 470.75V479.303" stroke="black"/>
<path d="M456.281 499.387L461.116 499.759L456.281 505.337" stroke="black"/>
<path d="M443.264 512.031V516.494L447.726 512.031" stroke="black"/>
<path d="M446.24 506.451L451.447 501.988L453.678 502.732L455.165 504.963L448.843 510.542L446.24 508.682V506.451Z" stroke="black"/>
<path d="M451.445 494.18L451.073 500.13L443.263 506.824L436.197 504.964" stroke="black"/>
<path d="M438.803 487.858L432.109 493.064L423.184 482.28L428.018 477.445L438.803 487.858Z" stroke="black"/>
<path d="M420.58 484.51L429.877 475.957" stroke="black"/>
<path d="M438.801 503.478L414.629 478.934V473.727L419.463 469.637H423.926L448.47 494.553V499.016L443.636 503.478H438.801Z" stroke="black"/>
<path d="M408.678 475.957V469.263M408.678 469.263L415.744 462.941L417.975 467.776L413.884 471.867L408.678 469.263Z" stroke="black"/>
<path d="M443.263 512.03H449.214L456.279 505.336V499.014L419.091 461.082H413.141L406.447 467.032L405.703 472.982L443.263 512.03Z" stroke="black"/>
<path d="M419.09 483.022L428.759 474.469" stroke="black"/>
<path d="M281.963 356.43L234.088 384.495L221.939 363.771L269.814 335.705" stroke="black"/>
<path d="M157.184 237.851L156.432 323.825L126.906 323.524L127.982 291.028" stroke="black"/>
<path d="M127.873 265.1L128.282 237.188L157.184 237.855" stroke="black"/>
<path d="M295.608 388.152L287.322 361.144L285.45 362.241L282.023 356.397M37.7036 250.037L35.7456 283.889L55.2218 284.211L55.0715 311.133L63.5075 311.219L62.3673 337.883L163.342 339.905L164.504 323.291L266.791 330.413L269.874 335.673" stroke="black"/>
<path d="M301.847 384.493L294.185 357.119L296.681 355.656L290.828 345.67L288.331 347.134L281.746 335.9L284.242 334.437L243.632 265.162L241.136 266.626L242.599 269.122L236.358 272.781L232.14 272.738" stroke="black"/>
<path d="M338.67 362.903L324.767 339.188L364.085 316.139L366.28 319.883L373.769 315.493L371.574 311.748L377.815 308.09L377.6 304.862L378.482 303.506L379.989 301.784L394.343 293.37L390.684 287.129L376.33 295.543L373.037 289.927L371.165 291.024L370.067 289.152L367.571 290.615L366.473 288.743L368.97 287.28L359.522 276.885L354.981 272L351.323 265.759L348.826 267.223L322.485 222.288L326.229 220.093L322.936 214.476L320.741 210.732L317.814 205.739L315.146 199.756L313.575 195.646L310.54 189.039L313.661 187.21L310.368 181.593L345.941 160.739L349.6 166.98L351.472 165.882L371.788 193.385L374.284 191.922L400.626 236.857L397.505 238.686L401.53 245.551L407.922 263.606L409.794 262.509L411.257 265.005L409.385 266.103L410.483 267.975L408.61 269.073L411.903 274.69L398.508 282.542L402.167 288.783L415.562 280.93L418.166 281.081L419.887 282.587L421.243 283.47L435.597 275.055L435.49 273.441L435.64 270.837L436.157 268.857L449.887 260.808L445.862 253.943L432.132 261.992L429.205 256.999L427.333 258.097L426.236 256.225L424.363 257.322L423.266 255.45L425.138 254.352L411.515 239.697L407.766 232.671L405.619 233.93L379.277 188.995L381.773 187.532L370.582 165.581L367.074 156.736L369.571 155.273L365.912 149.032L401.485 128.178L405.144 134.419L408.264 132.589L427.332 160.824L430.452 158.995L435.574 167.732L440.567 164.805L435.445 156.068L438.566 154.239L416.248 116.169L456.814 92.3883L478.507 130.824L480.38 129.726L483.931 134.353L485.179 133.621L486.418 135.736L493.283 131.711" stroke="black"/>
<path d="M492.517 131.835L476.419 104.375L480.788 101.814L478.958 98.6933L473.966 101.62L465.551 87.2661L470.544 84.3392L467.617 79.3465L457.007 85.5661L454.08 80.5733L446.591 84.9636L449.152 89.3323L414.827 109.454L412.266 105.086L404.777 109.476L407.338 113.845L399.225 118.601L398.45 121.571L396.944 123.292L394.015 125.009L391.327 126.585L371.356 138.293L363.243 143.049L361.005 143.522L360.015 143.264L358.249 142.622L358.035 142.748L343.681 151.162L343.164 153.142L342.282 154.498L341.4 155.854L340.152 156.585L338.279 157.683L320.805 167.927L313.316 172.317L307.075 175.976L304.837 176.449L303.223 176.557L301.867 175.675L300.877 175.417L293.388 179.807L291.193 176.062L283.704 180.453L285.899 184.197L251.87 204.145L249.675 200.401L242.514 204.599L244.709 208.344L237.22 212.734L240.878 218.975L243.375 217.511L249.96 228.745L248.088 229.843L267.844 263.544L273.461 260.251L272.363 258.379L275.484 256.549L272.557 251.557L275.053 250.093L252.736 212.024L293.302 188.243L315.985 226.937L318.481 225.473L344.823 270.408L341.703 272.237L361.093 305.314L320.527 329.095L300.771 295.394L298.275 296.857L280.347 266.277L277.851 267.74L276.754 265.868L271.137 269.16L303.332 324.08L305.205 322.983L311.79 334.217L309.294 335.68L315.147 345.665L317.644 344.202L331.18 367.293" stroke="black"/>
<path d="M539.004 245.467L525.101 221.751L492.024 241.142L494.219 244.886L486.73 249.277L484.169 244.908L477.304 248.933L473.344 247.9L470.482 248.739L457.376 256.422L453.718 250.181L468.072 241.766L464.779 236.15L466.651 235.052L465.554 233.18L467.426 232.082L465.963 229.586L464.09 230.683L458.323 212.262L454.298 205.397L456.794 203.933L452.038 195.82L456.407 193.259L461.163 201.372L474.893 193.323L477.088 197.068L466.479 203.288L483.815 232.86L524.381 209.08L506.679 178.883L484.212 192.054L482.016 188.309L506.98 173.675L490.882 146.215L492.13 145.483L490.667 142.987L493.787 141.157" stroke="black"/>
<path d="M565.923 221.298L563.47 218.544L546.62 228.422L542.229 220.933L557.208 212.152L551.311 206.385L532.588 217.36L546.491 241.076" stroke="black"/>
<path d="M519.568 143.653L538.958 176.729L533.966 179.656L536.161 183.401L541.154 180.474L549.568 194.828L533.966 203.975L525.185 188.996L530.178 186.07L528.349 182.949L523.356 185.876L503.966 152.799" stroke="black"/>
<path d="M572.165 217.637L557.552 202.724L563.169 199.431L545.608 169.475L526.583 137.022L512.68 113.307L498.778 89.5912L489.266 73.3648L500.499 66.7794" stroke="black"/>
<path d="M497.575 61.7873L473.235 76.0557L476.162 81.0485L481.155 78.1216L489.569 92.4757L483.953 95.7684L486.148 99.513L491.764 96.2203L508.96 125.553" stroke="black"/>
<path d="M438.674 180.172L431.357 167.69" stroke="black" stroke-width="0.5"/>
<path d="M439.92 179.441L432.603 166.96" stroke="black" stroke-width="0.5"/>
<path d="M232.615 274.974L236.833 275.017L241.955 283.754L227.601 292.169L211.568 294.859L211.396 287.413" stroke="black"/>
<path d="M208.575 284.032L205.455 285.862L168.117 285.109L168.999 259.435L181.287 258.94L181.33 254.722L177.736 254.313L178.274 238.065L209.414 238.258L209.113 243.466L214.321 243.767L214.493 251.213L209.285 250.912L208.618 255.496L191.122 255.69L190.713 259.284L208.575 259.714L208.424 262.318L211.653 262.103L211.803 259.499L223.037 252.913L228.525 262.275L235.39 258.25L237.219 261.371L239.715 259.907L229.105 241.809L227.233 242.906L220.282 231.049L222.778 229.585L219.12 223.344L209.134 229.198L75.7712 227.715" stroke="black"/>
<path d="M125.891 264.581L125.719 257.134L115.669 257.156L115.625 237.056L73.4451 236.626L73.4885 256.726L66.0423 256.899L65.5905 264.71L59.7584 264.775L60.6834 234.883" stroke="black"/>
<path d="M51.4304 241.982L50.9789 274.113L60.0391 273.833L59.9315 272.219L65.7635 272.154L65.398 295.848L72.8441 295.676L72.4786 319.37L114.659 319.8L115.39 296.73L125.44 296.708L125.742 291.5" stroke="black"/>
<path d="M445.795 175.16L450.551 183.273L445.558 186.2L440.802 178.087L445.795 175.16Z" stroke="black"/>
<path d="M437.792 181.53L430.474 169.048L434.843 166.487L442.16 178.969L437.792 181.53Z" stroke="black"/>
<path d="M452.287 46.4084L452.325 52.1818L457.306 49.2619L452.287 46.4084ZM478.33 89.8448L454.994 50.0376L454.131 50.5434L477.467 90.3505L478.33 89.8448Z" fill="black"/>
<path d="M241.03 240.691L240.992 234.918L236.011 237.837L241.03 240.691ZM201.086 173.542L238.323 237.062L239.186 236.556L201.949 173.036L201.086 173.542Z" fill="black"/>
<path d="M411.775 311.666L411.737 305.892L406.756 308.812L411.775 311.666ZM380.612 259.495L409.068 308.037L409.931 307.531L381.474 258.989L380.612 259.495Z" fill="black"/>
<path d="M466.693 279.471L466.655 273.697L461.674 276.617L466.693 279.471ZM435.53 227.3L463.986 275.841L464.849 275.336L436.392 226.794L435.53 227.3Z" fill="black"/>
<path d="M842.286 502.455C842.286 516.022 831.16 527.03 817.425 527.03C803.69 527.03 792.564 516.022 792.564 502.455C792.564 488.887 803.69 477.879 817.425 477.879C831.16 477.879 842.286 488.887 842.286 502.455Z" stroke="black"/>
<circle cx="283" cy="311" r="12" fill="#212526"/>
<path d="M277.975 307.381H280.43V316H278.801V308.922H277.025L277.975 307.381ZM284.701 307.381H287.156V316H285.527V308.922H283.752L284.701 307.381Z" fill="white"/>
<path d="M309.375 277.484C309.107 277.968 308.499 278.142 308.016 277.875L300.142 273.516C299.658 273.249 299.484 272.64 299.751 272.157C300.019 271.674 300.627 271.499 301.11 271.766L308.109 275.641L311.984 268.642C312.251 268.158 312.86 267.984 313.343 268.251C313.826 268.519 314.001 269.127 313.734 269.61L309.375 277.484ZM275.061 302.898C263.604 297.297 258.906 289.982 258.914 282.694C258.922 275.493 263.537 268.711 269.85 264.128C276.173 259.538 284.404 257 291.935 258.48C299.549 259.976 306.248 265.541 309.461 276.724L307.539 277.276C304.502 266.709 298.326 261.774 291.549 260.442C284.69 259.094 277.014 261.399 271.025 265.747C265.026 270.101 260.921 276.351 260.914 282.696C260.907 288.956 264.896 295.703 275.939 301.102L275.061 302.898Z" fill="#212526"/>
<circle cx="313" cy="290" r="12" fill="#212526"/>
<path d="M307.975 286.381H310.43V295H308.801V287.922H307.025L307.975 286.381ZM314.818 289.158H313.219C313.262 288.229 313.553 287.498 314.092 286.967C314.635 286.432 315.33 286.164 316.178 286.164C316.701 286.164 317.162 286.275 317.561 286.498C317.963 286.717 318.283 287.035 318.521 287.453C318.764 287.867 318.885 288.289 318.885 288.719C318.885 289.23 318.738 289.781 318.445 290.371C318.156 290.961 317.625 291.658 316.852 292.463L315.885 293.482H318.955V295H312.984V294.215L315.65 291.496C316.295 290.844 316.723 290.32 316.934 289.926C317.148 289.527 317.256 289.168 317.256 288.848C317.256 288.516 317.145 288.242 316.922 288.027C316.703 287.809 316.42 287.699 316.072 287.699C315.721 287.699 315.428 287.83 315.193 288.092C314.959 288.354 314.834 288.709 314.818 289.158Z" fill="white"/>
</svg>
