<svg width="1008" height="693" viewBox="0 0 1008 693" fill="none" xmlns="http://www.w3.org/2000/svg">
<path d="M815.43 477.381L756.964 420.961L699.17 477.381" stroke="black"/>
<path d="M798.333 485.899L759.921 447.172L740.944 466.704L721.967 486.236L723.599 506.441" stroke="black"/>
<path d="M784.359 574.833L816 527.202M764.709 562.422L797.016 516.133" stroke="black"/>
<path d="M491.297 545.922L470.375 573.12L534.037 617.953L554.361 591.95L491.297 545.922Z" stroke="black" stroke-width="7"/>
<path d="M669.692 400.042L645.265 425.238L701.083 480.272L724.751 456.228L669.692 400.042Z" stroke="black" stroke-width="7"/>
<path d="M419.92 502.458L389.715 474.345L403.215 455.156" stroke="black" stroke-width="7"/>
<path d="M397.318 453.608L402.252 455.179L386.216 475.372L353.157 466.173L222.896 498.931L206.12 500.95L132.355 513.066L34.4123 528.099L32.6854 524.061L33.4255 522.266V515.759L30.7117 504.989L27.2578 466.397L188.851 443.287L215.495 437.005L317.907 405.286L331.941 397.291V366.817L338.993 362.828L397.318 453.608Z" stroke="black"/>
<path d="M53.2969 427.166L49.4529 431.566L55.1395 432.564L53.2969 427.166ZM50.8948 441.422L52.8888 431.661L51.9038 431.489L49.9099 441.25L50.8948 441.422Z" fill="black"/>
<path d="M546.152 241.724L566.668 221.493L574.362 216.648L691.018 349.074H697.294L702.589 346.514L697.294 353.799L695.921 358.722C695.921 358.722 697.606 363.931 698.078 367.385C698.673 371.727 700.234 374.792 698.078 378.608C696.823 380.829 693.371 383.136 693.371 383.136C690.018 385.493 683.565 386.877 683.565 386.877L609.126 391.893L488.592 408.135L461.521 362.828L537.888 244.858L546.152 241.724Z" stroke="black"/>
<path d="M35.2305 464.84L163.986 446.837L189.786 443.011L216.316 436.035L265.761 421.243L295.681 412.41L317.052 405.856L325.886 400.727M283.25 389L214.126 424.782M199.765 428.158L185.892 431.759L78.3113 444.136H69.3057" stroke="black"/>
<path d="M981.842 454.586L603.998 87.5703" stroke="black"/>
<path d="M723.1 505.645L741.663 549.268L765.529 562.588M672.385 401.417L680.34 386.766M784.754 574.576L802.322 586.231" stroke="black"/>
<path d="M686.769 657.996L625.796 624.82L615.933 619.44H535.235M469.181 574.01L399.541 589.552L360.089 512.141L274.01 535.155L263.25 538.442L246.812 541.431L145.191 559.962L42.0762 578.493" stroke="black"/>
<path d="M920.861 522.399L505.119 58.5" stroke="black"/>
<path d="M57.1914 444.897L55.1289 441.956L59.7695 439.694L56.4179 434.716L61.3164 432.454L57.9648 427.703L62.6054 425.44L59.2539 420.463L63.6367 418.201L60.2851 413.45L65.4414 411.187L64.4101 406.888L57.9648 407.567L56.9336 403.269L50.2305 403.721L49.7148 399.875H43.7852" stroke="black"/>
<path d="M417.975 467.778L425.04 467.406" stroke="black"/>
<path d="M411.652 470.758V479.311" stroke="black"/>
<path d="M456.281 499.391L461.116 499.763L456.281 505.341" stroke="black"/>
<path d="M443.264 512.031V516.494L447.726 512.031" stroke="black"/>
<path d="M446.24 506.455L451.447 501.992L453.678 502.736L455.165 504.967L448.843 510.546L446.24 508.686V506.455Z" stroke="black"/>
<path d="M451.445 494.188L451.073 500.138L443.263 506.832L436.197 504.972" stroke="black"/>
<path d="M438.803 487.866L432.109 493.072L423.184 482.288L428.018 477.453L438.803 487.866Z" stroke="black"/>
<path d="M420.58 484.514L429.877 475.961" stroke="black"/>
<path d="M438.801 503.482L414.629 478.938V473.731L419.463 469.641H423.926L448.47 494.557V499.019L443.636 503.482H438.801Z" stroke="black"/>
<path d="M408.678 475.961V469.267M408.678 469.267L415.744 462.945L417.975 467.78L413.884 471.871L408.678 469.267Z" stroke="black"/>
<path d="M443.263 512.034H449.214L456.279 505.34V499.018L419.091 461.086H413.141L406.447 467.036L405.703 472.986L443.263 512.034Z" stroke="black"/>
<path d="M419.09 483.03L428.759 474.477" stroke="black"/>
<path d="M281.963 356.43L234.088 384.495L221.939 363.771L269.814 335.705" stroke="black"/>
<path d="M157.184 237.851L156.432 323.825L126.906 323.524L127.982 291.028" stroke="black"/>
<path d="M127.873 265.1L128.282 237.188L157.184 237.855" stroke="black"/>
<path d="M295.608 388.152L287.322 361.144L285.45 362.241L282.023 356.397M37.7036 250.037L35.7456 283.889L55.2218 284.211L55.0715 311.133L63.5075 311.219L62.3673 337.883L163.342 339.905L164.504 323.291L266.791 330.413L269.874 335.673" stroke="black"/>
<path d="M301.847 384.489L294.185 357.115L296.681 355.652L290.828 345.666L288.331 347.13L281.746 335.896L284.242 334.433L243.632 265.159L241.136 266.622L242.599 269.118L236.358 272.777L232.14 272.734" stroke="black"/>
<path d="M338.67 362.907L324.767 339.192L364.085 316.143L366.28 319.887L373.769 315.497L371.574 311.752L377.815 308.094L377.6 304.866L378.482 303.51L379.989 301.788L394.343 293.373L390.684 287.133L376.33 295.547L373.037 289.93L371.165 291.028L370.067 289.156L367.571 290.619L366.473 288.747L368.97 287.284L359.522 276.889L354.981 272.004L351.323 265.763L348.826 267.227L322.485 222.292L326.229 220.097L322.936 214.48L320.741 210.736L317.814 205.743L315.146 199.76L313.575 195.65L310.54 189.043L313.661 187.214L310.368 181.597L345.941 160.743L349.6 166.984L351.472 165.886L371.788 193.389L374.284 191.926L400.626 236.86L397.505 238.69L401.53 245.555L407.922 263.61L409.794 262.513L411.257 265.009L409.385 266.107L410.483 267.979L408.61 269.077L411.903 274.693L398.508 282.546L402.167 288.787L415.562 280.934L418.166 281.085L419.887 282.591L421.243 283.474L435.597 275.059L435.49 273.445L435.64 270.841L436.157 268.861L449.887 260.812L445.862 253.947L432.132 261.996L429.205 257.003L427.333 258.101L426.236 256.229L424.363 257.326L423.266 255.454L425.138 254.356L411.515 239.701L407.766 232.675L405.619 233.934L379.277 188.999L381.773 187.536L370.582 165.585L367.074 156.74L369.571 155.276L365.912 149.036L401.485 128.182L405.144 134.423L408.264 132.593L427.332 160.828L430.452 158.999L435.574 167.736L440.567 164.809L435.445 156.072L438.566 154.242L416.248 116.173L456.814 92.3922L478.507 130.828L480.38 129.73L483.931 134.357L485.179 133.625L486.418 135.74L493.283 131.715" stroke="black"/>
<path d="M492.517 131.839L476.419 104.379L480.788 101.818L478.958 98.6972L473.966 101.624L465.551 87.27L470.544 84.3431L467.617 79.3504L457.007 85.57L454.08 80.5772L446.591 84.9675L449.152 89.3362L414.827 109.458L412.266 105.09L404.777 109.48L407.338 113.849L399.225 118.605L398.45 121.575L396.944 123.296L394.015 125.013L391.327 126.589L371.356 138.296L363.243 143.053L361.005 143.526L360.015 143.268L358.249 142.626L358.035 142.751L343.681 151.166L343.164 153.146L342.282 154.502L341.4 155.858L340.152 156.589L338.279 157.687L320.805 167.931L313.316 172.321L307.075 175.98L304.837 176.453L303.223 176.561L301.867 175.679L300.877 175.42L293.388 179.811L291.193 176.066L283.704 180.456L285.899 184.201L251.87 204.149L249.675 200.405L242.514 204.603L244.709 208.348L237.22 212.738L240.878 218.979L243.375 217.515L249.96 228.749L248.088 229.847L267.844 263.548L273.461 260.255L272.363 258.383L275.484 256.553L272.557 251.561L275.053 250.097L252.736 212.028L293.302 188.247L315.985 226.94L318.481 225.477L344.823 270.412L341.703 272.241L361.093 305.318L320.527 329.098L300.771 295.398L298.275 296.861L280.347 266.28L277.851 267.744L276.754 265.872L271.137 269.164L303.332 324.084L305.205 322.987L311.79 334.22L309.294 335.684L315.147 345.669L317.644 344.206L331.18 367.297" stroke="black"/>
<path d="M539.004 245.467L525.101 221.751L492.024 241.142L494.219 244.886L486.73 249.277L484.169 244.908L477.304 248.933L473.344 247.9L470.482 248.739L457.376 256.422L453.718 250.181L468.072 241.766L464.779 236.15L466.651 235.052L465.554 233.18L467.426 232.082L465.963 229.586L464.09 230.683L458.323 212.262L454.298 205.397L456.794 203.933L452.038 195.82L456.407 193.259L461.163 201.372L474.893 193.323L477.088 197.068L466.479 203.288L483.815 232.86L524.381 209.08L506.679 178.883L484.212 192.054L482.016 188.309L506.98 173.675L490.882 146.215L492.13 145.483L490.667 142.987L493.787 141.157" stroke="black"/>
<path d="M565.923 221.298L563.47 218.544L546.62 228.422L542.229 220.933L557.208 212.152L551.311 206.385L532.588 217.36L546.491 241.076" stroke="black"/>
<path d="M519.568 143.653L538.958 176.729L533.966 179.656L536.161 183.401L541.154 180.474L549.568 194.828L533.966 203.975L525.185 188.996L530.178 186.07L528.349 182.949L523.356 185.876L503.966 152.799" stroke="black"/>
<path d="M572.165 217.637L557.552 202.724L563.169 199.431L545.608 169.475L526.583 137.022L512.68 113.307L498.778 89.5912L489.266 73.3648L500.499 66.7794" stroke="black"/>
<path d="M497.575 61.7873L473.235 76.0557L476.162 81.0485L481.155 78.1216L489.569 92.4757L483.953 95.7684L486.148 99.513L491.764 96.2203L508.96 125.553" stroke="black"/>
<path d="M438.674 180.172L431.357 167.69" stroke="black" stroke-width="0.5"/>
<path d="M439.92 179.438L432.603 166.956" stroke="black" stroke-width="0.5"/>
<path d="M232.615 274.978L236.833 275.021L241.955 283.758L227.601 292.173L211.568 294.863L211.396 287.417" stroke="black"/>
<path d="M208.575 284.036L205.455 285.866L168.117 285.113L168.999 259.439L181.287 258.944L181.33 254.726L177.736 254.317L178.274 238.069L209.414 238.262L209.113 243.47L214.321 243.771L214.493 251.217L209.285 250.916L208.618 255.5L191.122 255.694L190.713 259.288L208.575 259.718L208.424 262.322L211.653 262.107L211.803 259.503L223.037 252.917L228.525 262.279L235.39 258.254L237.219 261.375L239.715 259.911L229.105 241.813L227.233 242.91L220.282 231.052L222.778 229.589L219.12 223.348L209.134 229.202L75.7712 227.719" stroke="black"/>
<path d="M125.891 264.584L125.719 257.138L115.669 257.16L115.625 237.06L73.4451 236.63L73.4885 256.73L66.0423 256.902L65.5905 264.714L59.7584 264.779L60.6834 234.887" stroke="black"/>
<path d="M51.4304 241.982L50.9789 274.113L60.0391 273.833L59.9315 272.219L65.7635 272.154L65.398 295.848L72.8441 295.676L72.4786 319.37L114.659 319.8L115.39 296.73L125.44 296.708L125.742 291.5" stroke="black"/>
<path d="M445.795 175.16L450.551 183.273L445.558 186.2L440.802 178.087L445.795 175.16Z" stroke="black"/>
<path d="M437.792 181.53L430.474 169.048L434.843 166.487L442.16 178.969L437.792 181.53Z" stroke="black"/>
<path d="M452.287 46.4123L452.325 52.1857L457.306 49.2658L452.287 46.4123ZM478.33 89.8487L454.994 50.0415L454.131 50.5473L477.467 90.3544L478.33 89.8487Z" fill="black"/>
<path d="M241.03 240.691L240.992 234.918L236.011 237.837L241.03 240.691ZM201.086 173.542L238.323 237.062L239.186 236.556L201.949 173.036L201.086 173.542Z" fill="black"/>
<path d="M411.775 311.666L411.737 305.892L406.756 308.812L411.775 311.666ZM380.612 259.495L409.068 308.037L409.931 307.531L381.474 258.989L380.612 259.495Z" fill="black"/>
<path d="M466.693 279.471L466.655 273.697L461.674 276.617L466.693 279.471ZM435.53 227.3L463.986 275.841L464.849 275.336L436.392 226.794L435.53 227.3Z" fill="black"/>
<path d="M842.286 502.458C842.286 516.026 831.16 527.034 817.425 527.034C803.69 527.034 792.564 516.026 792.564 502.458C792.564 488.891 803.69 477.883 817.425 477.883C831.16 477.883 842.286 488.891 842.286 502.458Z" stroke="black"/>
<circle cx="313" cy="290" r="12" fill="#212526"/>
<path d="M307.975 286.381H310.43V295H308.801V287.922H307.025L307.975 286.381ZM314.818 289.158H313.219C313.262 288.229 313.553 287.498 314.092 286.967C314.635 286.432 315.33 286.164 316.178 286.164C316.701 286.164 317.162 286.275 317.561 286.498C317.963 286.717 318.283 287.035 318.521 287.453C318.764 287.867 318.885 288.289 318.885 288.719C318.885 289.23 318.738 289.781 318.445 290.371C318.156 290.961 317.625 291.658 316.852 292.463L315.885 293.482H318.955V295H312.984V294.215L315.65 291.496C316.295 290.844 316.723 290.32 316.934 289.926C317.148 289.527 317.256 289.168 317.256 288.848C317.256 288.516 317.145 288.242 316.922 288.027C316.703 287.809 316.42 287.699 316.072 287.699C315.721 287.699 315.428 287.83 315.193 288.092C314.959 288.354 314.834 288.709 314.818 289.158Z" fill="white"/>
<circle cx="346" cy="300" r="12" fill="#212526"/>
<path d="M340.975 296.381H343.43V305H341.801V297.922H340.025L340.975 296.381ZM348.006 298.508H346.43C346.512 297.871 346.74 297.359 347.115 296.973C347.639 296.434 348.297 296.164 349.09 296.164C349.797 296.164 350.389 296.389 350.865 296.838C351.346 297.287 351.586 297.82 351.586 298.438C351.586 298.82 351.48 299.17 351.27 299.486C351.062 299.803 350.76 300.059 350.361 300.254C350.885 300.41 351.293 300.684 351.586 301.074C351.883 301.461 352.031 301.918 352.031 302.445C352.031 303.219 351.746 303.875 351.176 304.414C350.605 304.949 349.879 305.217 348.996 305.217C348.16 305.217 347.479 304.965 346.951 304.461C346.424 303.953 346.135 303.264 346.084 302.393H347.707C347.777 302.838 347.932 303.17 348.17 303.389C348.412 303.604 348.717 303.711 349.084 303.711C349.467 303.711 349.783 303.588 350.033 303.342C350.287 303.096 350.414 302.795 350.414 302.439C350.414 302.049 350.244 301.719 349.904 301.449C349.564 301.18 349.074 301.041 348.434 301.033V299.627C348.828 299.596 349.121 299.535 349.312 299.445C349.508 299.352 349.658 299.225 349.764 299.064C349.873 298.904 349.928 298.734 349.928 298.555C349.928 298.32 349.846 298.127 349.682 297.975C349.518 297.818 349.303 297.74 349.037 297.74C348.803 297.74 348.59 297.812 348.398 297.957C348.207 298.098 348.076 298.281 348.006 298.508Z" fill="white"/>
<path d="M341.44 288.342C341.251 288.861 340.677 289.129 340.158 288.94L331.7 285.864C331.181 285.675 330.913 285.102 331.102 284.583C331.291 284.064 331.865 283.796 332.384 283.985L339.902 286.718L342.636 279.2C342.825 278.681 343.398 278.413 343.917 278.602C344.437 278.791 344.704 279.365 344.516 279.884L341.44 288.342ZM302.713 283.616C293.681 272.076 289.789 263.14 289.649 257.015C289.577 253.917 290.468 251.448 292.245 249.793C294.012 248.146 296.504 247.447 299.353 247.563C305.02 247.795 312.466 251.253 319.98 257.85C327.523 264.473 335.228 274.338 341.406 287.577L339.594 288.423C333.522 275.412 325.977 265.777 318.66 259.353C311.315 252.904 304.292 249.767 299.271 249.562C296.777 249.46 294.87 250.08 293.608 251.256C292.356 252.423 291.586 254.278 291.648 256.969C291.773 262.422 295.319 270.924 304.288 282.384L302.713 283.616Z" fill="#212526"/>
</svg>
